<svg xmlns="http://www.w3.org/2000/svg" width="750" height="1334" viewBox="0 0 750 1334">
  <defs>
    <linearGradient id="mobileBg" x1="0%" y1="0%" x2="100%" y2="100%">
      <stop offset="0%" style="stop-color:#3b82f6;stop-opacity:1" />
      <stop offset="100%" style="stop-color:#1e40af;stop-opacity:1" />
    </linearGradient>
  </defs>
  
  <!-- Background -->
  <rect width="750" height="1334" fill="url(#mobileBg)"/>
  
  <!-- Header -->
  <rect x="0" y="0" width="750" height="100" fill="rgba(255,255,255,0.1)"/>
  
  <!-- Menu button -->
  <rect x="20" y="30" width="40" height="40" rx="20" fill="rgba(255,255,255,0.3)"/>
  
  <!-- Profile section -->
  <circle cx="375" cy="250" r="60" fill="rgba(255,255,255,0.3)"/>
  
  <!-- Name and title -->
  <rect x="200" y="330" width="350" height="25" rx="12" fill="rgba(255,255,255,0.8)"/>
  <rect x="250" y="370" width="250" height="18" rx="9" fill="rgba(255,255,255,0.6)"/>
  
  <!-- Description -->
  <rect x="50" y="450" width="650" height="15" rx="7" fill="rgba(255,255,255,0.5)"/>
  <rect x="50" y="480" width="600" height="15" rx="7" fill="rgba(255,255,255,0.5)"/>
  <rect x="50" y="510" width="550" height="15" rx="7" fill="rgba(255,255,255,0.5)"/>
  
  <!-- Skills section -->
  <rect x="50" y="580" width="100" height="30" rx="15" fill="rgba(255,255,255,0.3)"/>
  <rect x="170" y="580" width="120" height="30" rx="15" fill="rgba(255,255,255,0.3)"/>
  <rect x="310" y="580" width="90" height="30" rx="15" fill="rgba(255,255,255,0.3)"/>
  
  <!-- Project cards -->
  <rect x="50" y="650" width="650" height="120" rx="10" fill="rgba(255,255,255,0.2)"/>
  <rect x="50" y="790" width="650" height="120" rx="10" fill="rgba(255,255,255,0.2)"/>
  <rect x="50" y="930" width="650" height="120" rx="10" fill="rgba(255,255,255,0.2)"/>
  
  <!-- Navigation tabs -->
  <rect x="0" y="1200" width="750" height="80" fill="rgba(0,0,0,0.3)"/>
  <rect x="100" y="1220" width="60" height="40" rx="20" fill="rgba(255,255,255,0.2)"/>
  <rect x="200" y="1220" width="60" height="40" rx="20" fill="rgba(255,255,255,0.2)"/>
  <rect x="300" y="1220" width="60" height="40" rx="20" fill="rgba(255,255,255,0.2)"/>
  <rect x="400" y="1220" width="60" height="40" rx="20" fill="rgba(255,255,255,0.2)"/>
  
  <!-- Title -->
  <text x="375" y="140" text-anchor="middle" fill="white" font-family="Arial, sans-serif" font-size="24" font-weight="bold">Portfólio Mobile</text>
</svg>